<?xml version="1.0" encoding="UTF-8"?>
<!DOCTYPE svg PUBLIC "-//W3C//DTD SVG 1.1//EN" "http://www.w3.org/Graphics/SVG/1.1/DTD/svg11.dtd">
<svg xmlns="http://www.w3.org/2000/svg" version="1.1" width="470px" height="440px" style="shape-rendering:geometricPrecision; text-rendering:geometricPrecision; image-rendering:optimizeQuality; fill-rule:evenodd; clip-rule:evenodd" xmlns:xlink="http://www.w3.org/1999/xlink">
<g><path style="opacity:0.998" fill="#000000" d="M 67.5,-0.5 C 178.5,-0.5 289.5,-0.5 400.5,-0.5C 438.244,7.20545 461.244,29.8721 469.5,67.5C 469.5,168.833 469.5,270.167 469.5,371.5C 462.904,403.941 443.904,425.775 412.5,437C 408.653,437.633 404.986,438.467 401.5,439.5C 290.167,439.5 178.833,439.5 67.5,439.5C 38.2606,434.104 17.4272,417.771 5,390.5C 2.6729,384.172 0.839566,377.838 -0.5,371.5C -0.5,270.167 -0.5,168.833 -0.5,67.5C 7.5,30.1667 30.1667,7.5 67.5,-0.5 Z"/></g>
<g><path style="opacity:1" fill="#f8f8f8" d="M 91.5,159.5 C 106.646,157.609 120.98,160.109 134.5,167C 147.321,175.81 153.988,187.977 154.5,203.5C 148.167,203.5 141.833,203.5 135.5,203.5C 134.988,187.157 126.654,177.99 110.5,176C 101.039,174.56 92.0387,175.894 83.5,180C 70.5163,191.217 70.1829,202.884 82.5,215C 93.6547,220.745 105.321,225.079 117.5,228C 130.486,232.065 141.319,239.232 150,249.5C 161.376,282.228 149.876,301.728 115.5,308C 93.1214,311.428 73.9548,305.262 58,289.5C 52.2525,282.185 49.4191,273.852 49.5,264.5C 56.1667,264.5 62.8333,264.5 69.5,264.5C 68.9575,277.572 74.9575,286.072 87.5,290C 99.6053,293.526 111.605,293.193 123.5,289C 135.076,281.601 138.242,271.434 133,258.5C 127.74,252.45 121.24,248.284 113.5,246C 99.1348,242.434 85.4681,237.101 72.5,230C 53.2836,216.65 49.1169,199.483 60,178.5C 68.3071,168.434 78.8071,162.101 91.5,159.5 Z"/></g>
<g><path style="opacity:1" fill="#fdfdfd" d="M 272.5,306.5 C 272.173,284.925 272.506,263.425 273.5,242C 272.934,241.005 272.267,240.172 271.5,239.5C 247.167,239.5 222.833,239.5 198.5,239.5C 198.5,261.833 198.5,284.167 198.5,306.5C 192.167,306.5 185.833,306.5 179.5,306.5C 179.5,258.167 179.5,209.833 179.5,161.5C 185.833,161.5 192.167,161.5 198.5,161.5C 198.5,182.167 198.5,202.833 198.5,223.5C 222.833,223.5 247.167,223.5 271.5,223.5C 271.5,202.833 271.5,182.167 271.5,161.5C 277.833,161.5 284.167,161.5 290.5,161.5C 290.5,209.833 290.5,258.167 290.5,306.5C 284.5,306.5 278.5,306.5 272.5,306.5 Z"/></g>
<g><path style="opacity:1" fill="#f6f6f6" d="M 310.5,161.5 C 347.833,161.5 385.167,161.5 422.5,161.5C 422.5,166.833 422.5,172.167 422.5,177.5C 407.167,177.5 391.833,177.5 376.5,177.5C 376.5,220.5 376.5,263.5 376.5,306.5C 369.833,306.5 363.167,306.5 356.5,306.5C 356.5,263.5 356.5,220.5 356.5,177.5C 341.167,177.5 325.833,177.5 310.5,177.5C 310.5,172.167 310.5,166.833 310.5,161.5 Z"/></g>
<g><path style="opacity:1" fill="#dcdcdc" d="M 271.5,239.5 C 272.267,240.172 272.934,241.005 273.5,242C 272.506,263.425 272.173,284.925 272.5,306.5C 271.503,284.34 271.169,262.006 271.5,239.5 Z"/></g>
</svg>
