<?xml version="1.0" standalone="no"?><!DOCTYPE svg PUBLIC "-//W3C//DTD SVG 1.1//EN" "http://www.w3.org/Graphics/SVG/1.1/DTD/svg11.dtd"><svg t="1722667138499" class="icon" viewBox="0 0 1877 1024" version="1.1" xmlns="http://www.w3.org/2000/svg" p-id="1484" width="16" height="12" xmlns:xlink="http://www.w3.org/1999/xlink"><path d="M1051.140236 476.08462c-11.944775 5.972388-38.393921 0-49.485498 5.972388a126.017381 126.017381 0 0 0-35.834326 0 396.907823 396.907823 0 0 0 3.412793 110.062573l116.034961-5.119189a352.626834 352.626834 0 0 0 35.834326-18.770362c52.045093-23.036353 98.970996-47.779102 147.603296-72.52185a622.834718 622.834718 0 0 0 124.566944-60.577076 366.875245 366.875245 0 0 1 99.824194 35.834326c42.659912 16.210767 82.76023 23.889551 125.420142 41.806714a915.822995 915.822995 0 0 0 94.705005 38.393921l121.154151-8.531982v-3.412793a340.25546 340.25546 0 0 0 0-110.062573l-82.76023 6.825585a959.592065 959.592065 0 0 1-97.2646-38.39392 410.047076 410.047076 0 0 1-99.824194-35.834327l273.023438-134.805322a1049.43384 1049.43384 0 0 0 0-193.676001c-136.511719 11.091577-266.197852 16.210767-408.681959 24.742749a612.852298 612.852298 0 0 1-152.722485 5.972387L1135.606862 0c-36.687524 60.577075-78.494238 119.447754-116.034961 179.171631a355.783668 355.783668 0 0 1-56.311084 88.732617 60.406436 60.406436 0 0 0 44.366309 22.183155 448.355677 448.355677 0 0 1 92.14541 35.834326 60.747715 60.747715 0 0 0 30.715137-39.247119c22.183154-34.981128 49.485498-71.668652 71.668652-107.502979a760.967513 760.967513 0 0 0 152.722486-7.678784h55.457886a672.746815 672.746815 0 0 0 92.14541-8.531982c47.779102-11.091577 108.356177 5.972388 152.722486-8.531983v3.412793a35.066448 35.066448 0 0 1 0 18.770361 158.012315 158.012315 0 0 1-63.989869 33.274732l-133.098926 67.402661a202.207984 202.207984 0 0 0-52.898291 25.595947 477.193778 477.193778 0 0 1-122.007349-45.219506 261.163982 261.163982 0 0 1-76.787842-24.742749 436.069622 436.069622 0 0 0-71.668652 96.411401 283.944375 283.944375 0 0 0 110.915772 49.485498v3.412793c-64.843067 30.715137-127.126538 68.255859-191.969605 93.851807h-2.559595zM818.217116 685.971388a148.968413 148.968413 0 0 0 47.779101-3.412793 402.453612 402.453612 0 0 0 0-110.915772l-204.767578 10.238379V253.399878a645.87107 645.87107 0 0 0 0-151.869287l-74.228247 5.119189a221.831543 221.831543 0 0 0-47.779102 0 215.688516 215.688516 0 0 0-46.925903 0v331.040919a752.86213 752.86213 0 0 1 0 151.869287L0 617.715528v110.062574a1139.872853 1139.872853 0 0 0 194.5292-11.091577 384.621768 384.621768 0 0 0 91.292212-5.11919h56.311084a168.847932 168.847932 0 0 0-30.715137 38.393921c-22.183154 30.715137-46.072705 60.577075-68.25586 91.292212a272.08492 272.08492 0 0 0-45.219506 58.017481 1084.159008 1084.159008 0 0 0-155.282081 13.651172 126.017381 126.017381 0 0 0-35.834326 0V1023.837892a803.798065 803.798065 0 0 0 150.162891-11.091577 295.121272 295.121272 0 0 1 61.430273 0 458.423416 458.423416 0 0 0 99.824195-5.972388 397.675701 397.675701 0 0 0 72.521851-91.292212c52.898291-72.521851 122.860547-144.190503 172.346045-220.125146a945.684933 945.684933 0 0 0 162.960864-11.091578 597.836009 597.836009 0 0 0 99.824195-5.972387zM201.354785 335.30691a66.037544 66.037544 0 0 0 44.366309 0l143.337305-5.11919a93.851807 93.851807 0 0 0-39.247119-54.604687c-29.00874-42.659912-67.402661-76.787842-92.14541-118.594556l-136.511719 8.531982H68.255859a230.363526 230.363526 0 0 0 45.219507 54.604688A799.020155 799.020155 0 0 0 201.354785 332.747315v2.559595z m6.825586 215.859155a195.126438 195.126438 0 0 0 54.604688 0l126.27334-9.38518a140.69239 140.69239 0 0 0-33.274731-43.513111c-22.183154-29.00874-42.659912-56.311084-63.989869-85.319824a175.246919 175.246919 0 0 1-33.274731-41.806714 412.69199 412.69199 0 0 0-116.88816 5.972388 165.2645 165.2645 0 0 0-50.338696 0 60.406436 60.406436 0 0 0-24.742749 0c26.449146 41.806714 68.255859 76.787842 93.851807 116.034961a134.720003 134.720003 0 0 0 45.219507 52.045093zM1834.376224 685.971388V577.615211c-126.27334 0-226.950733 17.917163-348.958082 17.063965v-52.898291a573.34922 573.34922 0 0 0-108.356177 5.972387c-17.063965 4.265991-42.659912-5.119189-56.311084 0h-5.119189a201.184146 201.184146 0 0 1 0 55.457886l-346.398487 18.770362v110.062573a531.115907 531.115907 0 0 0 116.034961-7.678784c34.981128-7.678784 72.521851 0 103.236987-5.11919a463.969205 463.969205 0 0 0 101.530591-5.972387 155.196761 155.196761 0 0 1 28.155542 0v162.960864a295.633191 295.633191 0 0 0 0 77.64104c43.51311-4.265991 112.622168-8.531982 164.667261-11.091577V777.2636a282.323299 282.323299 0 0 1 8.531983-70.815454c116.034961 0 228.657129-11.944775 340.426099-18.770362z m-1079.295778 35.834326l-185.997218 8.531983a257.58055 257.58055 0 0 0 38.393921 80.200634c31.568335 60.577075 63.989868 119.447754 91.292213 181.731226l116.888159-5.119189a167.824095 167.824095 0 0 0 68.255859-5.972388 147.091377 147.091377 0 0 0-33.274731-67.402661c-34.12793-63.989868-62.283472-129.686133-97.2646-191.116407z m990.56316 0h-11.091577a265.771253 265.771253 0 0 1-41.806714 3.412793 393.750989 393.750989 0 0 0-113.475366 10.238379 373.615511 373.615511 0 0 1 45.219507 75.081445c24.742749 40.953516 53.751489 81.053833 77.64104 124.566944a799.958673 799.958673 0 0 0 135.658521-9.385181H1877.036136a2409.858439 2409.858439 0 0 0-124.566944-206.473975z m-502.533765 27.302344a176.867996 176.867996 0 0 1-44.366309 3.412793 864.88706 864.88706 0 0 0-116.888159 11.091577 87.3675 87.3675 0 0 0-27.302344 49.485498c-20.476758 33.274732-40.100317 67.402661-58.870679 104.943384a182.755064 182.755064 0 0 1-27.302344 52.898291v7.678784l169.786451-7.678784c27.302344-52.045093 56.311084-104.943384 83.613428-155.28208a220.893025 220.893025 0 0 1 28.155542-54.604688c0-9.385181 0-6.825586-5.972388-11.944775h-0.853198z" fill="#999999" p-id="1485"></path></svg>